<svg viewBox="0 0 32 32" xmlns="http://www.w3.org/2000/svg"><g fill="#212238"><path d="M24 24H7V12.294L9 5.5 22 6l2 6.294V24zM14 4h-3v1h3V4zm6 0h-3v1h3V4z"/><path d="M25 22H6v2h19v-2zM8.879 25L6 28h2.879l2.51-3h-2.51zm13.631 0l2.879 3H22.51L20 25h2.51z"/></g><path d="M10.482 20.997a1.49 1.49 0 001.483-1.499A1.49 1.49 0 0010.482 18 1.49 1.49 0 009 19.498a1.49 1.49 0 001.482 1.499zm10 0a1.49 1.49 0 001.483-1.499A1.49 1.49 0 0020.482 18 1.49 1.49 0 0019 19.498a1.49 1.49 0 001.482 1.499z" fill="#fff"/><path d="M22 15H9v-3.502L10 8h11.234L22 11.498V15z" fill="#FFE500"/></svg>
